<?xml version="1.0" encoding="UTF-8" standalone="no"?>
<!-- Created with Inkscape (http://www.inkscape.org/) -->

<svg
   width="48"
   height="48"
   viewBox="0 0 12.7 12.7"
   version="1.1"
   id="svg1"
   inkscape:version="1.3.2 (091e20ef0f, 2023-11-25)"
   sodipodi:docname="logo.svg"
   xmlns:inkscape="http://www.inkscape.org/namespaces/inkscape"
   xmlns:sodipodi="http://sodipodi.sourceforge.net/DTD/sodipodi-0.dtd"
   xmlns="http://www.w3.org/2000/svg"
   xmlns:svg="http://www.w3.org/2000/svg">
  <sodipodi:namedview
     id="namedview1"
     pagecolor="#ffffff"
     bordercolor="#666666"
     borderopacity="1.0"
     inkscape:showpageshadow="2"
     inkscape:pageopacity="0.0"
     inkscape:pagecheckerboard="0"
     inkscape:deskcolor="#d1d1d1"
     inkscape:document-units="mm"
     inkscape:zoom="17.10525"
     inkscape:cx="23.735403"
     inkscape:cy="28.880023"
     inkscape:window-width="2400"
     inkscape:window-height="1304"
     inkscape:window-x="0"
     inkscape:window-y="0"
     inkscape:window-maximized="0"
     inkscape:current-layer="g2" />
  <defs
     id="defs1">
    <inkscape:path-effect
       effect="knot"
       id="path-effect3"
       is_visible="true"
       lpeversion="1"
       switcher_size="15"
       interruption_width="3"
       prop_to_stroke_width="true"
       add_stroke_width="inkscape_1.0_and_up"
       both="false"
       inverse_width="false"
       add_other_stroke_width="inkscape_1.0_and_up"
       crossing_points_vector="7.1975884 | 7.3719452 | 0 | 1 | 0 | 3 | 2.5722294 | 4.342949 | -1 | 7.5128769 | 7.8618812 | 0 | 1 | 1 | 4 | 2.9384112 | 4.5005018 | 1 | 6.2265338 | 9.5564273 | 0 | 1 | 2 | 9 | 4.041996 | 8.5414911 | 1 | 4.8813388 | 6.3452649 | 0 | 1 | 3 | 8 | 5.5079282 | 8.0325894 | 1 | 7.1489612 | 5.6325019 | 0 | 1 | 4 | 2 | 6.1945081 | 3.8345308 | 1 | 9.0808166 | 8.7443606 | 0 | 1 | 5 | 5 | 7.165325 | 4.987918 | 1 | 7.8477914 | 10.58725 | 0 | 1 | 6 | 10 | 7.6577268 | 8.8170487 | 1 | 5.6004331 | 4.1218084 | 0 | 1 | 7 | 7 | 9.8738376 | 7.6613242 | 1 | 10.172512 | 6.141786 | 0 | 1 | 9 | 0 | 10.710443 | 1.9699143 | 1 | 8.540988 | 4.501866 | 0 | 1 | 8 | 1 | 10.346942 | 3.1954446 | 1 | 10.705835 | 8.4633323 | 0 | 1 | 10 | 6 | 11.068293 | 5.352946 | 1 | 9.8043665 | 10.866756 | 0 | 1 | 11 | 11 | 11.434233 | 9.0829516 | 1" />
    <inkscape:path-effect
       effect="knot"
       id="path-effect2"
       is_visible="true"
       lpeversion="1"
       switcher_size="15"
       interruption_width="3"
       prop_to_stroke_width="true"
       add_stroke_width="inkscape_1.0_and_up"
       both="true"
       inverse_width="false"
       add_other_stroke_width="inkscape_1.0_and_up"
       crossing_points_vector="" />
  </defs>
  <g
     inkscape:label="Layer 1"
     inkscape:groupmode="layer"
     id="layer1">
    <g
       id="g2">
      <path
         id="path2"
         style="fill:none;fill-rule:evenodd;stroke:#000000;stroke-width:0.264583;stroke-linecap:round"
         transform="matrix(-1,0,0,1,15.344663,-0.1420325)"
         d="m 6.3499999,7.9575405 c -1e-7,0.2382678 -0.3211803,0.1175527 -0.3960167,-2e-7 -0.2028021,-0.3185613 0.089193,-0.6943681 0.3960172,-0.7920332 0.06098,-0.01941 0.1217037,-0.031191 0.1816289,-0.036079 M 7.5179491,8.5386087 C 7.4019751,8.9440544 7.0808852,9.2804096 6.6826023,9.4467397 M 5.5705079,9.4712214 C 4.9386352,9.2497865 4.4577904,8.6477036 4.3699163,7.9575393 4.2169525,6.7561583 5.1796515,5.7056175 6.3500013,5.5814402 c 1.4174505,-0.1503953 2.646063,0.9900723 2.7721156,2.376102 0.012063,0.1326446 0.014449,0.263798 0.00779,0.3928961 M 8.974704,9.1299064 C 8.8169502,9.5754711 8.549223,9.9748676 8.2056784,10.297716 m -0.802734,0.546408 C 7.0769594,10.997928 6.7210672,11.096146 6.349998,11.125674 4.5007442,11.272832 2.9144051,9.7749666 2.7858495,7.9575384 2.6397763,5.8924609 4.3168635,4.1268058 6.3500022,3.9973733 7.7953447,3.9053608 9.1058803,4.6171388 9.9051985,5.7231927 m 0.5052965,0.9157195 c 0.166232,0.4138654 0.269032,0.8580186 0.295689,1.3186309 0.0011,0.018801 0.0021,0.03758 0.0029,0.056338 m -0.05852,0.9260829 c -0.09347,0.5398171 -0.288076,1.0489664 -0.563042,1.5082162 m -0.647853,0.8431 C 8.6453266,12.111196 7.5483073,12.646169 6.3499971,12.709741 M 9.1269544,6.104853 c -0.3183789,0 -0.1570769,0.4291684 0,0.5291667 C 9.5526231,6.9050088 10.054785,6.514839 10.185288,6.1048531 10.345033,5.6029976 10.118014,5.1140821 9.7346669,4.807855 M 8.0323847,4.6714253 C 7.763605,4.8112772 7.5296276,5.0206653 7.3515791,5.2728142 M 7.0275374,6.0115499 c -0.00651,0.030912 -0.012271,0.062022 -0.01725,0.093303 -0.2094846,1.31623 0.8409866,2.4834087 2.1166665,2.6458334 C 10.732267,8.9550812 12.136025,7.6687015 12.301954,6.1048532 12.502917,4.2108233 10.978999,2.5691219 9.1269546,2.4006864 7.9241623,2.2912976 6.8131249,2.777433 6.029495,3.5941461 M 5.3119083,4.6113333 C 5.1472271,4.9403106 5.0253041,5.2934273 4.9539692,5.6618799 m -0.046554,1.254577 C 5.1488335,9.0245405 6.969366,10.714734 9.1269542,10.867353 11.886358,11.062541 14.245669,8.82158 14.418621,6.1048533 14.612647,3.0570964 12.131924,0.45793107 9.1269547,0.28401973 5.7908687,0.09094518 2.9516653,2.8116361 2.7769543,6.1048527"
         inkscape:path-effect="#path-effect3"
         inkscape:original-d="m 6.3499999,7.9575405 c -1e-7,0.2382678 -0.3211803,0.1175527 -0.3960167,-2e-7 C 5.7511811,7.638979 6.0431758,7.2631722 6.3500004,7.1655071 6.8988375,6.9908072 7.4269944,7.4342025 7.5380501,7.9575412 7.7010286,8.7255619 7.0890492,9.4239843 6.349999,9.5416074 5.3649612,9.6983804 4.4914708,8.9122302 4.3699163,7.9575393 4.2169525,6.7561583 5.1796515,5.7056175 6.3500013,5.5814402 7.7674518,5.4310449 8.9960643,6.5715125 9.1221169,7.9575422 9.2706655,9.5909301 7.9517221,10.998214 6.349998,11.125674 4.5007442,11.272832 2.9144051,9.7749666 2.7858495,7.9575384 2.6397763,5.8924609 4.3168635,4.1268058 6.3500022,3.9973733 8.6308767,3.8521697 10.576034,5.7086896 10.706184,7.9575431 10.850675,10.454197 8.8145682,12.578993 6.3499971,12.709741 M 9.1269544,6.104853 c -0.3183789,0 -0.1570769,0.4291684 0,0.5291667 C 9.5526231,6.9050088 10.054785,6.514839 10.185288,6.1048531 10.418726,5.3714844 9.8262517,4.6657485 9.1269545,4.517353 8.1007077,4.2995766 7.167459,5.117317 7.0102878,6.1048529 6.8008032,7.4210829 7.8512744,8.5882616 9.1269543,8.7506863 10.732267,8.9550812 12.136025,7.6687015 12.301954,6.1048532 12.502917,4.2108233 10.978999,2.5691219 9.1269546,2.4006864 6.9443841,2.2021909 5.0639373,3.9645923 4.8936213,6.1048528 4.6969843,8.5758683 6.6984648,10.695572 9.1269542,10.867353 11.886358,11.062541 14.245669,8.82158 14.418621,6.1048533 14.612647,3.0570964 12.131924,0.45793107 9.1269547,0.28401973 5.7908687,0.09094518 2.9516653,2.8116361 2.7769543,6.1048527" />
    </g>
  </g>
</svg>
